<?xml version="1.0" encoding="UTF-8" standalone="no"?>
<!-- Created with Inkscape (http://www.inkscape.org/) -->

<svg
   width="50.270832mm"
   height="12.964583mm"
   viewBox="0 0 50.270832 12.964583"
   version="1.1"
   id="svg1"
   inkscape:version="1.3 (0e150ed6c4, 2023-07-21)"
   sodipodi:docname="button.svg"
   xmlns:inkscape="http://www.inkscape.org/namespaces/inkscape"
   xmlns:sodipodi="http://sodipodi.sourceforge.net/DTD/sodipodi-0.dtd"
   xmlns="http://www.w3.org/2000/svg"
   xmlns:svg="http://www.w3.org/2000/svg">
  <sodipodi:namedview
     id="namedview1"
     pagecolor="#505050"
     bordercolor="#eeeeee"
     borderopacity="1"
     inkscape:showpageshadow="0"
     inkscape:pageopacity="0"
     inkscape:pagecheckerboard="0"
     inkscape:deskcolor="#d1d1d1"
     inkscape:document-units="mm"
     inkscape:zoom="0.70110129"
     inkscape:cx="94.13761"
     inkscape:cy="24.96073"
     inkscape:window-width="1920"
     inkscape:window-height="1001"
     inkscape:window-x="-9"
     inkscape:window-y="-9"
     inkscape:window-maximized="1"
     inkscape:current-layer="layer1" />
  <defs
     id="defs1" />
  <g
     inkscape:label="Layer 1"
     inkscape:groupmode="layer"
     id="layer1"
     transform="translate(-79.904167,-142.08125)">
    <g
       id="g507"
       transform="matrix(0.26458333,0,0,0.26458333,74.6125,136.78958)">
      <path
         stroke="none"
         fill="#d5d5d5"
         d="M 207.95,25.05 Q 207.5,22 204,22 H 26 q -3.5,0 -3.9,3.05 L 22,26 v 33 q 0,4 4,4 h 178 q 4,0 4,-4 V 26 l -0.05,-0.95 M 20,59.25 V 26 q 0,-6 6,-6 h 178 q 6,0 6,6 V 59.25 Q 209.85,65 204,65 H 26 q -5.85,0 -6,-5.75"
         id="path40" />
      <path
         stroke="none"
         fill="#ffffff"
         d="M 207.95,25.05 208,26 v 33 q 0,4 -4,4 H 26 q -4,0 -4,-4 V 26 l 0.1,-0.95 Q 22.5,22 26,22 h 178 q 3.5,0 3.95,3.05 M 205,25.55 204.95,25.5 Q 204.75,25 204,25 H 26 q -0.75,0 -0.95,0.5 v 0.05 L 25,26 v 33 q 0,1 1,1 h 178 q 1,0 1,-1 V 26 25.55"
         id="path41" />
      <path
         stroke="none"
         fill="#eeeeee"
         d="M 205,25.55 V 26 59 q 0,1 -1,1 H 26 q -1,0 -1,-1 V 26 l 0.05,-0.45 V 25.5 Q 25.25,25 26,25 h 178 q 0.75,0 0.95,0.5 l 0.05,0.05"
         id="path42" />
      <path
         stroke="none"
         fill="#aaaaaa"
         d="M 210,59.25 V 63 q 0,6 -6,6 H 26 q -6,0 -6,-6 V 59.25 Q 20.15,65 26,65 h 178 q 5.85,0 6,-5.75"
         id="path43" />
    </g>
  </g>
</svg>
